<?xml version="1.0" encoding="UTF-8" standalone="no"?>
<svg
   viewBox="0 0 350 350"
   height="350"
   width="350"
   version="1.1"
   id="svg2"
   sodipodi:docname="php.svg"
   inkscape:version="1.1 (c68e22c387, 2021-05-23)"
   xmlns:inkscape="http://www.inkscape.org/namespaces/inkscape"
   xmlns:sodipodi="http://sodipodi.sourceforge.net/DTD/sodipodi-0.dtd"
   xmlns="http://www.w3.org/2000/svg"
   xmlns:svg="http://www.w3.org/2000/svg"
   xmlns:rdf="http://www.w3.org/1999/02/22-rdf-syntax-ns#"
   xmlns:cc="http://creativecommons.org/ns#"
   xmlns:dc="http://purl.org/dc/elements/1.1/">
  <sodipodi:namedview
     id="namedview20"
     pagecolor="#505050"
     bordercolor="#eeeeee"
     borderopacity="1"
     inkscape:pageshadow="0"
     inkscape:pageopacity="0"
     inkscape:pagecheckerboard="0"
     showgrid="false"
     inkscape:snap-object-midpoints="true"
     showguides="true"
     inkscape:guide-bbox="true"
     inkscape:zoom="1.4285714"
     inkscape:cx="177.8"
     inkscape:cy="238"
     inkscape:window-width="1366"
     inkscape:window-height="715"
     inkscape:window-x="-8"
     inkscape:window-y="-8"
     inkscape:window-maximized="1"
     inkscape:current-layer="svg2">
    <sodipodi:guide
       position="175,175"
       orientation="0,1"
       id="guide1118"
       inkscape:label=""
       inkscape:locked="false"
       inkscape:color="rgb(0,0,255)" />
  </sodipodi:namedview>
  <metadata
     id="metadata8">
    <rdf:RDF>
      <cc:Work
         rdf:about="">
        <dc:format>image/svg+xml</dc:format>
        <dc:type
           rdf:resource="http://purl.org/dc/dcmitype/StillImage" />
      </cc:Work>
    </rdf:RDF>
  </metadata>
  <defs
     id="defs6">
    <clipPath
       clipPathUnits="userSpaceOnUse"
       id="clipPath3444">
      <path
         d="M 11.52,162 C 11.52,81.677 135.307,16.561 288,16.561 v 0 c 152.693,0 276.481,65.116 276.481,145.439 v 0 c 0,80.322 -123.788,145.439 -276.481,145.439 v 0 C 135.307,307.439 11.52,242.322 11.52,162"
         id="path3446" />
    </clipPath>
    <radialGradient
       cx="0"
       cy="0"
       fx="0"
       fy="0"
       gradientTransform="matrix(363.05789,0,0,-363.05789,177.52002,256.30713)"
       gradientUnits="userSpaceOnUse"
       id="radialGradient3452"
       r="1"
       spreadMethod="pad">
      <stop
         id="stop3454"
         offset="0"
         style="stop-opacity:1;stop-color:#aeb2d5" />
      <stop
         id="stop3456"
         offset="0.3"
         style="stop-opacity:1;stop-color:#aeb2d5" />
      <stop
         id="stop3458"
         offset="0.75"
         style="stop-opacity:1;stop-color:#484c89" />
      <stop
         id="stop3460"
         offset="1"
         style="stop-opacity:1;stop-color:#484c89" />
    </radialGradient>
    <clipPath
       clipPathUnits="userSpaceOnUse"
       id="clipPath3468">
      <path
         d="M 0,324 H 576 V 0 H 0 Z"
         id="path3470" />
    </clipPath>
    <clipPath
       clipPathUnits="userSpaceOnUse"
       id="clipPath3480">
      <path
         d="M 0,324 H 576 V 0 H 0 Z"
         id="path3482" />
    </clipPath>
  </defs>
  <path
     d="m 59.015074,198.75776 c 10.267711,0 17.932941,-1.92338 22.78297,-5.71478 4.798119,-3.7525 8.112035,-10.25392 9.848995,-19.3227 1.619515,-8.47663 1.002511,-14.39541 -1.833119,-17.5895 -2.899473,-3.26238 -9.168174,-4.9169 -18.63166,-4.9169 H 54.773534 l -9.096678,47.54388 z M 5.3464549,257.32317 c -0.7616646,0 -1.4850439,-0.34578 -1.9692734,-0.94398 -0.4851099,-0.59731 -0.681676,-1.38395 -0.5361612,-2.14379 L 26.949047,128.24328 c 0.233194,-1.21798 1.284205,-2.09799 2.506276,-2.09799 h 51.958898 c 16.329604,0 28.484039,4.50371 36.123759,13.3875 7.68056,8.93047 10.05238,21.41375 7.04908,37.10236 -1.22207,6.39164 -3.32412,12.3277 -6.24741,17.64224 -2.92669,5.3206 -6.79464,10.24354 -11.49829,14.63487 -5.63043,5.35257 -12.002964,9.23389 -18.923535,11.51772 -6.810818,2.25359 -15.557722,3.39637 -25.997309,3.39637 H 40.881301 l -6.008292,31.39797 c -0.233194,1.21885 -1.283363,2.09885 -2.505434,2.09885 z"
     id="path3486"
     style="opacity:1;fill:#ffffff;fill-opacity:1;fill-rule:nonzero;stroke:none;stroke-width:1.29473" />
  <path
     d="m 188.65735,223.82635 c -0.75276,0 -1.46603,-0.34577 -1.94406,-0.94397 -0.47971,-0.59732 -0.67377,-1.38309 -0.53012,-2.1438 l 10.52761,-55.74648 c 1.00145,-5.30158 0.75445,-9.10682 -0.69478,-10.71467 -0.88717,-0.98285 -3.55204,-2.63133 -11.43158,-2.63133 h -19.07253 l -13.23618,70.0814 c -0.23021,1.21884 -1.26775,2.09885 -2.47418,2.09885 h -26.46397 c -0.75275,0 -1.466,-0.34577 -1.94488,-0.94397 -0.47886,-0.59732 -0.67294,-1.38396 -0.52929,-2.1438 L 144.66248,94.746453 c 0.23019,-1.21798 1.26775,-2.097983 2.47418,-2.097983 h 26.46394 c 0.75276,0 1.46604,0.345784 1.9449,0.943109 0.47888,0.598178 0.67293,1.383951 0.52928,2.144657 l -5.7431,30.409054 h 20.51755 c 15.63055,0 26.22957,2.83536 32.40282,8.66855 6.29252,5.95076 8.2559,15.46559 5.83635,28.28342 l -11.07287,58.63024 c -0.23017,1.21884 -1.2669,2.09885 -2.47416,2.09885 z"
     id="path3494"
     style="opacity:1;fill:#ffffff;fill-opacity:1;fill-rule:nonzero;stroke:none;stroke-width:1.29473" />
  <path
     d="m 277.8023,198.75776 c 10.66166,0 18.621,-1.92338 23.65712,-5.71478 4.98222,-3.75163 8.42329,-10.25305 10.22777,-19.3227 1.68165,-8.47663 1.04099,-14.39541 -1.90433,-17.5895 -3.01073,-3.26238 -9.51994,-4.9169 -19.34652,-4.9169 H 273.398 l -9.4457,47.54388 z m -55.72697,58.56541 c -0.79089,0 -1.54202,-0.34578 -2.04483,-0.94398 -0.5037,-0.59731 -0.70873,-1.38395 -0.55763,-2.14379 l 25.03305,-125.99212 c 0.24302,-1.21798 1.33348,-2.09799 2.60334,-2.09799 h 53.95162 c 16.95703,0 29.57695,4.50371 37.51068,13.3875 7.97525,8.9296 10.4372,21.4129 7.31955,37.10236 -1.27074,6.39164 -3.45256,12.3277 -6.488,17.64224 -3.03901,5.3206 -7.05536,10.24354 -11.93949,14.63487 -5.84646,5.35257 -12.46349,9.23389 -19.64963,11.51772 -7.07212,2.25359 -16.15463,3.39637 -26.99481,3.39637 h -21.84733 l -6.23618,31.39797 c -0.24301,1.21885 -1.33348,2.09885 -2.60333,2.09885 z"
     id="path3502"
     style="opacity:1;fill:#ffffff;fill-opacity:1;fill-rule:nonzero;stroke:none;stroke-width:1.29473" />
</svg>
